<svg height="90" width="90" viewBox="0 0 50 50" xml:space="preserve" xmlns="http://www.w3.org/2000/svg"><path clip-rule="evenodd" d="M49.555 31.195c0 1.269-.777 1.86-2.17 1.86h-2.66v-1.27h2.66c.246 0 .45-.041.533-.126a.545.545 0 0 0 .163-.381.65.65 0 0 0-.163-.422c-.083-.085-.246-.127-.492-.127-1.269-.043-2.865.042-2.865-1.819 0-.846.533-1.776 1.965-1.776h2.742v1.269H46.73c-.245 0-.41 0-.532.085-.122.126-.204.253-.204.466 0 .211.123.338.285.422.164.043.328.085.533.085h.736c.777 0 1.269.169 1.596.466.247.296.411.677.411 1.268zm-5.771-1.268c-.327-.297-.819-.466-1.597-.466h-.736c-.205 0-.369-.042-.531-.085-.164-.084-.287-.211-.287-.422 0-.213.041-.34.205-.466.122-.085.285-.085.531-.085h2.537v-1.269h-2.742c-1.473 0-1.965.931-1.965 1.776 0 1.861 1.598 1.776 2.865 1.819.246 0 .41.042.492.127a.656.656 0 0 1 .164.422.55.55 0 0 1-.164.381c-.123.085-.287.126-.532.126h-2.66v1.27h2.66c1.391 0 2.169-.592 2.169-1.86 0-.591-.164-.972-.409-1.268zm-5.239 1.902h-3.232v-1.184h3.15V29.46h-3.15v-1.1h3.232v-1.227h-4.582v5.921h4.582v-1.225zm-6.057-4.397c-.449-.255-.981-.297-1.678-.297h-3.15v5.921h1.391v-2.157h1.475c.49 0 .777.043.981.254.245.296.245.804.245 1.185v.719h1.35v-1.143c0-.549-.04-.804-.203-1.099a1.613 1.613 0 0 0-.695-.508c.367-.127.981-.634.981-1.565 0-.677-.246-1.057-.697-1.31zm-7.774-.297h-4.379l-1.76 1.946-1.678-1.946h-5.525v5.921h5.443l1.76-1.946 1.678 1.946h2.66v-1.987h1.719c1.187 0 2.373-.338 2.373-1.987 0-1.608-1.228-1.947-2.291-1.947zm6.67 2.453c-.204.085-.409.085-.655.085l-1.678.042v-1.354h1.678c.246 0 .49 0 .655.127.163.085.286.253.286.507s-.123.466-.286.593zm-6.67.296h-1.801v-1.522h1.801c.491 0 .817.212.817.72 0 .506-.326.802-.817.802zm-5.279.211 2.128-2.325v4.778l-2.128-2.453zm-3.316 1.734h-3.396v-1.184h3.028V29.46h-3.028v-1.1h3.438l1.514 1.733-1.556 1.736zm29.629-8.965h-1.964l-2.579-4.44v4.44h-2.783l-.531-1.312h-2.865l-.531 1.312h-1.596c-.655 0-1.515-.17-2.006-.678-.449-.507-.695-1.184-.695-2.24 0-.889.123-1.691.736-2.326.409-.465 1.146-.676 2.087-.676h1.31v1.268h-1.31c-.491 0-.777.085-1.063.339-.246.254-.369.719-.369 1.353 0 .635.123 1.1.369 1.396.205.211.572.296.941.296h.613l1.965-4.651h2.046l2.292 5.582v-5.582h2.128l2.415 4.102v-4.102h1.391v5.919h-.001zm-16.246-5.92h-1.393v5.92h1.393v-5.92zm-2.906.254c-.45-.254-.94-.254-1.637-.254h-3.15v5.92h1.35v-2.157h1.474c.491 0 .818.042 1.023.254.245.296.204.804.204 1.142v.762h1.391V21.68c0-.507-.041-.761-.245-1.058a1.714 1.714 0 0 0-.655-.507c.369-.169.982-.635.982-1.564-.001-.677-.287-1.058-.737-1.353zm-5.77 4.44h-3.192v-1.185h3.151v-1.227h-3.151V18.17h3.192v-1.226h-4.584v5.92h4.584v-1.226zm-5.607-4.694h-2.251l-1.678 4.017-1.801-4.017h-2.21v5.582l-2.332-5.582H2.901l-2.456 5.92h1.474l.532-1.312h2.864l.532 1.312H8.63v-4.652l2.005 4.652h1.187l2.005-4.652v4.652h1.392v-5.92zm22.181 3.34-.941-2.326-.941 2.326H37.4zm-11.869-.93c-.203.126-.408.126-.694.126h-1.679v-1.31h1.679c.245 0 .531 0 .694.085.164.127.246.296.246.55 0 .253-.082.465-.246.549zm-22.589.93.94-2.326.941 2.326H2.942z" fill="#006bb3" fill-rule="evenodd" class="fill-404041"></path></svg>