<?xml version="1.0" standalone="no"?>
<!DOCTYPE svg PUBLIC "-//W3C//DTD SVG 20010904//EN"
 "http://www.w3.org/TR/2001/REC-SVG-20010904/DTD/svg10.dtd">
<svg version="1.0" xmlns="http://www.w3.org/2000/svg"
 width="300.000000pt" height="62.000000pt" viewBox="0 0 300.000000 62.000000"
 preserveAspectRatio="xMidYMid meet">
<metadata>
Created by potrace 1.10, written by Peter Selinger 2001-2011
</metadata>
<g transform="translate(0.000000,62.000000) scale(0.100000,-0.100000)"
fill="#c0c0c5" stroke="none">
<path d="M2215 604 c-9 -9 -13 -24 -10 -35 4 -10 2 -27 -4 -36 -10 -17 -10
-17 -12 2 -1 11 -1 23 -1 27 2 13 -28 30 -43 24 -11 -4 -14 -16 -11 -47 l4
-42 -22 28 c-19 24 -23 25 -34 12 -9 -11 -10 -21 -4 -34 13 -25 53 -144 57
-168 1 -11 6 -27 9 -36 5 -10 1 -19 -9 -23 -9 -3 -25 -27 -36 -52 -52 -117 37
-230 163 -210 125 20 171 159 85 253 -13 15 -17 28 -12 40 5 10 7 22 6 26 0 4
10 48 25 97 26 93 25 115 -7 107 -15 -4 -19 0 -19 18 0 24 -27 42 -42 27 -5
-5 -10 -19 -13 -32 -6 -30 -15 -38 -17 -14 -3 38 -5 49 -13 67 -9 21 -19 22
-40 1z m31 -20 c-8 -22 5 -174 15 -174 4 0 16 36 26 80 11 48 23 80 30 80 9 0
10 -5 4 -17 -13 -26 -28 -143 -18 -143 4 0 21 27 36 60 15 34 30 58 34 54 4
-4 3 -12 -2 -18 -5 -6 -19 -44 -30 -83 l-22 -73 -77 -2 -77 -2 78 -3 c69 -3
77 -6 77 -23 0 -18 -7 -20 -80 -20 -79 0 -80 0 -80 26 0 14 -16 64 -35 111
-20 47 -34 88 -31 90 3 3 20 -24 37 -60 18 -36 36 -64 39 -62 7 5 -13 136 -24
154 -4 6 -1 11 7 11 7 0 14 -6 14 -13 0 -27 36 -147 44 -147 5 0 10 24 11 53
2 52 6 115 7 130 1 4 6 7 12 7 6 0 8 -7 5 -16z m70 -321 c80 -52 66 -182 -23
-220 -91 -37 -183 21 -183 116 0 106 115 164 206 104z"/>
<path d="M2171 244 c-16 -20 -21 -41 -21 -84 0 -79 24 -110 86 -110 71 0 106
57 90 146 -10 52 -37 74 -90 74 -36 0 -48 -5 -65 -26z m113 -16 c22 -30 21
-116 -1 -140 -9 -10 -30 -18 -49 -18 -43 0 -64 30 -64 90 0 61 21 90 65 90 24
0 39 -7 49 -22z"/>
<path d="M109 287 c-84 -57 -93 -193 -16 -244 46 -31 83 -36 147 -20 l55 14 3
43 c2 23 -1 47 -6 52 -14 14 -37 0 -49 -32 -10 -26 -17 -30 -47 -30 -45 0 -66
29 -66 91 0 63 27 95 77 90 7 0 24 -20 39 -42 22 -36 28 -39 40 -27 19 18 24
74 10 94 -7 9 -30 18 -52 20 -21 2 -53 5 -71 8 -23 3 -42 -2 -64 -17z m128
-17 c29 -17 32 -18 36 -2 2 9 5 -4 8 -30 2 -27 1 -48 -3 -48 -5 0 -8 7 -8 15
0 29 -47 65 -84 65 -60 0 -96 -63 -81 -144 10 -50 38 -76 85 -76 30 0 43 6 59
26 12 15 21 33 21 40 0 8 5 14 11 14 6 0 8 -7 5 -16 -3 -9 -7 -30 -7 -47 -1
-19 -3 -24 -6 -14 -4 17 -6 17 -23 2 -25 -22 -89 -29 -120 -13 -34 19 -70 75
-70 112 0 47 31 99 70 118 45 23 67 22 107 -2z"/>
<path d="M353 303 c-15 -6 -17 -39 -3 -48 6 -3 10 -45 10 -92 0 -68 -4 -91
-17 -105 -15 -17 -15 -20 -3 -28 8 -6 26 -10 40 -11 14 -1 32 -2 40 -3 42 -4
64 30 35 54 -8 7 -12 17 -8 24 4 6 8 18 8 26 0 10 10 15 30 15 26 0 30 -4 33
-28 2 -17 -3 -36 -13 -47 -15 -17 -15 -19 4 -32 24 -17 95 -15 117 2 13 11 13
15 -3 32 -21 24 -26 173 -6 190 19 16 16 38 -8 46 -28 11 -88 5 -105 -9 -13
-10 -12 -14 1 -29 8 -9 15 -26 15 -38 0 -18 -6 -22 -30 -22 -16 0 -33 0 -37 0
-13 0 -10 23 5 54 8 18 10 32 4 38 -10 10 -90 18 -109 11z m107 -24 c0 -4 -9
-9 -20 -12 -16 -4 -20 -14 -20 -51 l0 -46 65 0 65 0 0 46 c0 37 -4 47 -20 51
-37 10 -21 18 35 18 56 0 72 -8 35 -18 -18 -5 -20 -14 -20 -107 0 -93 2 -102
20 -107 37 -10 21 -18 -35 -18 -56 0 -72 8 -35 18 17 4 20 14 20 56 l0 51 -65
0 -65 0 0 -55 c0 -48 2 -55 20 -55 11 0 20 -3 20 -7 0 -5 -25 -8 -55 -8 -56 0
-72 8 -35 18 18 5 20 14 20 107 0 93 -2 102 -20 107 -37 10 -21 18 35 18 30 0
55 -3 55 -6z"/>
<path d="M672 299 c-26 -10 -27 -17 -5 -41 12 -14 18 -40 19 -96 2 -64 -1 -80
-17 -98 -18 -19 -18 -22 -3 -35 21 -17 97 -17 118 0 15 12 15 16 1 31 -11 12
-15 39 -15 100 0 61 4 88 15 100 13 14 13 19 3 28 -17 14 -89 21 -116 11z
m108 -20 c0 -4 -9 -9 -20 -12 -18 -5 -20 -14 -20 -107 0 -93 2 -102 20 -107
38 -10 20 -18 -37 -16 -71 2 -74 3 -43 12 25 7 25 8 25 111 0 101 -1 105 -23
108 -12 2 -20 6 -18 10 5 9 116 9 116 1z"/>
<path d="M905 300 c-46 -14 -78 -64 -83 -131 -5 -74 15 -113 73 -141 41 -20
48 -21 102 -8 32 7 64 18 71 23 16 13 15 82 -1 96 -15 12 -34 -4 -56 -46 -15
-29 -61 -31 -86 -3 -36 40 -21 151 22 162 22 6 63 -7 63 -20 0 -5 9 -21 21
-36 28 -36 49 -19 49 40 0 44 -10 58 -45 60 -11 1 -38 4 -60 7 -22 3 -54 2
-70 -3z m109 -31 c21 -17 26 -18 26 -5 0 9 5 16 10 16 6 0 10 -21 10 -46 0
-27 -4 -43 -10 -39 -5 3 -10 13 -10 21 0 27 -38 54 -78 54 -59 0 -77 -26 -77
-110 0 -84 18 -110 77 -110 40 0 78 27 78 54 0 8 5 18 10 21 6 4 10 -12 10
-42 -1 -38 -3 -44 -11 -30 -9 15 -12 16 -25 2 -41 -40 -132 -25 -164 28 -39
63 -17 161 43 191 44 21 79 20 111 -5z"/>
<path d="M1145 303 c-33 -8 -40 -21 -23 -40 18 -22 19 -176 0 -195 -17 -17
-15 -36 6 -46 26 -12 87 -9 106 7 12 11 19 11 31 1 29 -24 132 -20 142 6 2 7
-26 42 -67 81 l-72 67 29 26 c16 14 42 34 58 46 34 24 28 41 -20 50 -24 4 -43
1 -59 -9 -13 -9 -27 -12 -32 -7 -12 11 -74 20 -99 13z m95 -25 c0 -4 -9 -8
-20 -8 -22 0 -22 0 -22 -115 0 -107 0 -105 17 -105 8 0 15 -3 15 -7 0 -5 -25
-8 -55 -8 -30 0 -55 3 -55 8 0 4 9 7 20 7 19 0 20 7 20 110 0 103 -1 110 -20
110 -11 0 -20 3 -20 8 0 4 27 7 60 7 33 1 60 -3 60 -7z m120 0 c0 -5 -6 -8
-12 -8 -7 -1 -35 -21 -62 -46 l-48 -44 66 -65 c36 -36 73 -65 81 -65 8 0 15
-3 15 -7 0 -5 -29 -8 -65 -8 -36 0 -65 3 -65 8 0 4 9 7 20 7 31 0 24 13 -32
67 l-53 49 48 44 c42 38 46 46 33 56 -24 17 -20 19 29 19 25 0 45 -3 45 -7z
m-100 -21 c0 -14 -20 -37 -32 -37 -12 0 -10 24 4 38 16 16 28 15 28 -1z m-8
-169 c12 -14 15 -25 9 -31 -14 -14 -41 10 -41 34 0 25 8 24 32 -3z"/>
<path d="M1490 303 c-33 -13 -60 -47 -60 -78 0 -42 25 -73 76 -95 31 -14 44
-25 44 -40 0 -15 -7 -20 -25 -20 -14 0 -25 4 -25 9 0 4 -9 20 -21 35 -27 35
-49 19 -49 -35 0 -50 15 -58 114 -62 48 -1 86 37 86 86 0 44 -22 73 -81 102
-51 26 -63 45 -29 45 11 0 27 -11 36 -25 20 -31 46 -29 54 5 9 34 1 58 -19 64
-34 10 -87 15 -101 9z m62 -24 c16 -9 23 -8 29 2 6 9 9 -2 9 -31 l0 -45 -20
33 c-23 38 -72 45 -90 13 -13 -25 4 -42 70 -76 26 -13 50 -31 54 -40 13 -34 5
-64 -20 -84 -32 -25 -71 -27 -96 -4 -17 15 -20 15 -28 3 -7 -11 -9 -1 -9 30
l1 45 14 -32 c14 -34 43 -47 85 -41 19 2 25 10 27 35 3 30 0 34 -56 62 -77 39
-92 73 -50 118 24 25 48 29 80 12z"/>
<path d="M1875 303 c-56 -15 -105 -82 -105 -144 0 -57 34 -112 82 -133 38 -16
50 -17 103 -7 62 13 85 30 85 65 0 11 7 27 15 36 14 15 13 18 -2 32 -23 20
-51 24 -83 11 -22 -10 -23 -12 -7 -18 9 -4 33 -5 52 -3 19 2 35 0 35 -4 0 -4
-6 -8 -14 -8 -18 0 -28 -25 -20 -54 5 -20 0 -24 -49 -36 -66 -15 -100 -8 -138
29 -40 40 -46 89 -20 145 35 71 112 97 165 55 21 -17 26 -18 26 -5 0 9 3 16 8
16 4 0 7 -20 7 -45 0 -25 -3 -45 -7 -45 -5 0 -8 8 -8 18 0 30 -42 62 -81 62
-38 0 -78 -29 -80 -58 -7 -126 10 -162 79 -162 45 0 62 14 62 52 0 21 -5 28
-20 28 -11 0 -20 5 -20 12 0 6 -3 9 -6 6 -3 -4 1 -17 10 -30 17 -27 11 -42
-22 -50 -54 -14 -86 109 -43 164 28 35 79 28 93 -12 10 -30 36 -46 49 -33 5 5
11 25 13 45 5 40 -10 60 -47 63 -12 1 -38 4 -57 8 -19 3 -44 3 -55 0z"/>
<path d="M2460 302 c-14 -2 -31 -9 -38 -15 -11 -9 -11 -13 3 -23 26 -19 29
-166 3 -199 -18 -23 -18 -24 2 -38 24 -17 194 -17 211 0 7 7 21 6 45 -2 56
-19 172 -9 214 19 72 47 75 160 6 224 -20 18 -48 33 -63 34 -87 4 -131 2 -157
-10 l-28 -14 21 -21 c17 -19 20 -35 20 -103 0 -68 -3 -82 -20 -92 -17 -11 -19
-9 -19 17 0 16 -6 34 -14 40 -12 10 -19 6 -37 -18 -16 -22 -31 -31 -51 -31
l-28 0 0 89 c0 66 4 92 15 101 22 18 18 40 -7 41 -13 0 -30 2 -38 3 -8 1 -26
0 -40 -2z m90 -24 c0 -4 -10 -8 -22 -10 -22 -3 -23 -7 -23 -108 l0 -105 50 0
c41 0 51 4 61 23 18 37 24 37 24 -1 l0 -36 -105 -3 c-98 -3 -131 3 -85 15 18
5 20 14 20 107 0 93 -2 102 -20 107 -38 10 -20 18 40 18 33 0 60 -3 60 -7z
m292 2 c53 -15 88 -61 88 -116 0 -57 -21 -98 -57 -112 -33 -13 -193 -21 -193
-10 0 5 9 8 20 8 19 0 20 7 20 110 0 107 -1 110 -22 112 -13 0 -3 4 22 8 69
11 82 11 122 0z"/>
<path d="M2760 160 l0 -110 40 0 c60 0 90 33 90 100 0 55 -20 104 -45 114 -9
3 -32 6 -51 6 l-34 0 0 -110z m85 70 c23 -25 28 -112 8 -140 -9 -12 -25 -20
-44 -20 l-29 0 0 90 c0 88 1 90 23 90 13 0 32 -9 42 -20z"/>
</g>
</svg>
