<?xml version="1.0" standalone="no"?>
<!DOCTYPE svg PUBLIC "-//W3C//DTD SVG 20010904//EN"
 "http://www.w3.org/TR/2001/REC-SVG-20010904/DTD/svg10.dtd">
<svg version="1.0" xmlns="http://www.w3.org/2000/svg"
 width="300.000000pt" height="62.000000pt" viewBox="0 0 300.000000 62.000000"
 preserveAspectRatio="xMidYMid meet">
<metadata>
Created by potrace 1.10, written by Peter Selinger 2001-2011
</metadata>
<g transform="translate(0.000000,62.000000) scale(0.100000,-0.100000)"
fill="#c0c0c5" stroke="none">
<path d="M0 310 l0 -310 78 0 c51 0 72 3 62 9 -8 6 -17 8 -21 5 -13 -8 -79 79
-85 112 -13 68 25 146 82 170 29 12 46 13 90 4 29 -6 58 -9 63 -6 5 3 7 -3 4
-14 -6 -24 -7 -24 -39 -4 -32 22 -98 13 -130 -17 -31 -29 -48 -87 -40 -131 14
-74 113 -122 172 -83 21 14 28 15 35 4 6 -10 -6 -18 -44 -30 l-52 -17 115 -1
c107 0 113 1 83 14 -18 8 -33 16 -33 18 0 2 27 3 60 2 59 -2 80 8 40 18 -17 4
-20 14 -20 57 l0 51 63 -3 c60 -3 62 -4 65 -32 5 -43 -6 -76 -26 -76 -14 0
-17 7 -14 41 4 39 4 40 -24 37 -31 -3 -34 -15 -19 -71 6 -24 4 -29 -26 -42
-31 -13 -9 -14 236 -14 182 1 260 4 238 10 -71 21 -112 93 -100 179 10 74 58
115 132 111 101 -5 105 -6 100 -19 -3 -8 -5 -16 -5 -18 0 -3 -13 2 -30 11 -84
43 -170 -14 -170 -114 0 -22 4 -51 10 -65 20 -54 120 -85 166 -52 13 10 23 11
31 4 10 -8 13 0 13 36 0 25 -4 46 -10 46 -5 0 -10 -9 -10 -20 0 -44 -63 -74
-115 -54 -40 16 -59 120 -32 174 20 40 80 51 125 22 7 -5 17 -24 22 -43 l9
-34 -32 38 c-39 46 -67 47 -91 6 -32 -54 -4 -149 45 -149 9 0 30 17 47 37 26
33 32 36 46 24 21 -18 18 -80 -4 -92 -8 -4 -37 -14 -65 -23 -49 -14 -46 -15
140 -15 l189 -1 -39 20 c-34 18 -41 18 -55 5 -20 -19 -80 -20 -104 -2 -16 11
-10 13 44 13 34 -1 64 2 67 6 2 5 -5 8 -16 8 -19 0 -21 6 -21 55 0 30 4 55 9
55 4 0 30 -24 57 -52 45 -49 47 -53 27 -56 -47 -7 -21 -17 42 -17 36 0 65 3
65 8 0 4 -6 7 -12 7 -7 0 -43 30 -79 66 l-67 66 49 44 c27 24 57 44 67 44 12
-1 4 -12 -25 -38 -24 -21 -43 -42 -43 -48 0 -11 112 -124 123 -124 4 0 7 8 7
19 0 10 9 29 19 43 19 24 19 25 2 52 -22 33 -13 92 15 113 19 14 122 18 140 5
20 -13 24 -43 9 -71 -13 -26 -13 -30 5 -46 44 -40 32 -123 -22 -151 -35 -18
-118 -11 -155 12 -14 9 -23 10 -23 4 0 -6 -15 -17 -32 -25 -29 -12 37 -14 532
-14 506 0 562 1 538 15 -16 8 -28 16 -28 17 0 1 47 2 105 2 57 1 106 3 109 6
3 2 6 22 8 43 2 33 4 35 15 20 7 -10 13 -23 13 -28 0 -6 5 -4 10 4 13 20 13
156 0 180 -8 16 -6 22 13 34 18 13 41 14 107 9 76 -6 87 -9 119 -39 35 -31 36
-35 36 -104 0 -70 -1 -72 -37 -106 -26 -23 -48 -34 -70 -35 -54 -2 -78 -6 -85
-13 -3 -3 48 -6 115 -6 l122 0 0 310 0 310 -375 0 c-348 0 -400 -4 -364 -25 6
-4 8 -13 5 -21 -8 -21 11 -27 23 -7 5 10 11 16 14 13 8 -8 -34 -170 -44 -170
-8 0 -15 111 -10 168 1 14 -4 22 -13 22 -11 0 -15 -9 -14 -32 4 -69 -2 -158
-11 -158 -5 0 -16 33 -26 73 -22 96 -23 99 -35 92 -5 -3 -6 -15 -1 -28 5 -12
11 -51 15 -87 l6 -65 -29 55 c-31 56 -39 86 -21 75 9 -6 14 7 11 31 -1 6 5 17
13 23 12 10 19 8 34 -7 20 -20 20 -20 27 6 4 15 12 30 18 34 7 4 -491 8 -1105
8 l-1118 0 0 -310z m2340 239 c0 -11 5 -17 10 -14 6 3 10 2 10 -4 0 -19 -49
-121 -58 -121 -5 0 -2 30 5 68 8 37 15 75 16 84 2 23 17 11 17 -13z m43 -56
c-2 -16 -14 -67 -25 -114 l-20 -86 30 -42 c26 -36 30 -50 29 -96 -3 -63 -26
-101 -78 -127 -41 -21 -107 -23 -152 -4 -36 15 -87 69 -87 93 0 27 -24 7 -31
-26 -11 -53 -36 -71 -109 -77 -77 -8 -123 12 -154 66 -38 65 -14 171 47 210
18 11 83 14 148 7 53 -5 74 -50 48 -99 -9 -16 -7 -22 8 -33 21 -15 38 -18 38
-7 3 38 19 82 40 105 l26 27 -20 68 c-28 94 -41 156 -31 146 16 -16 70 -156
70 -180 0 -23 3 -24 80 -24 l80 0 0 28 c0 37 52 192 64 192 2 0 1 -12 -1 -27z
m-115 -150 c-15 -2 -42 -2 -60 0 -18 2 -6 4 27 4 33 0 48 -2 33 -4z m-1829
-42 c21 -13 -22 -24 -61 -16 -22 5 -27 9 -17 16 18 11 60 11 78 0z m183 -9 c7
-7 7 -21 -1 -43 -15 -42 -14 -151 1 -185 11 -23 10 -28 -7 -40 -21 -16 -73
-18 -94 -5 -19 12 38 24 73 15 15 -3 26 -2 26 4 0 5 -9 12 -20 15 -18 5 -20
14 -20 107 0 93 2 102 20 107 40 11 19 20 -41 18 -55 -1 -60 0 -43 12 21 16
89 12 106 -5z m151 6 c14 -11 16 -21 8 -68 -9 -55 -6 -154 5 -172 4 -5 -4 -8
-17 -6 -23 3 -24 6 -27 106 -3 97 -1 104 18 109 11 3 20 10 20 15 0 6 -11 7
-26 4 -35 -9 -92 3 -73 15 21 13 73 11 92 -3z m446 3 c10 -7 5 -11 -17 -16
-39 -8 -82 3 -61 16 18 11 60 11 78 0z m129 0 c18 -11 -32 -24 -59 -16 -11 4
-19 2 -19 -4 0 -6 5 -11 10 -11 22 0 7 -27 -36 -64 -25 -21 -46 -37 -48 -35
-1 2 -1 25 2 52 3 38 8 47 23 47 10 0 19 5 19 12 0 6 3 8 6 5 4 -3 16 0 28 8
23 17 54 19 74 6z m1181 0 c10 -7 5 -11 -17 -16 -39 -8 -82 3 -61 16 18 11 60
11 78 0z m-2227 -88 l-9 -28 -8 37 c-8 44 4 73 18 41 6 -13 6 -32 -1 -50z
m159 39 c-15 -28 -3 -54 23 -50 17 2 21 10 21 36 0 27 3 32 20 30 17 -3 20
-11 20 -48 l0 -44 -62 -2 -63 -1 0 44 c0 36 4 45 23 52 28 11 31 8 18 -17z
m619 -11 c0 -22 -4 -43 -10 -46 -6 -4 -10 12 -10 39 0 25 5 46 10 46 6 0 10
-18 10 -39z m75 -82 c0 -100 -1 -104 -23 -107 -20 -3 -21 -1 -12 24 11 28 8
174 -4 193 -5 7 0 8 16 2 22 -8 23 -13 23 -112z m-910 86 c14 -13 25 -33 25
-45 0 -28 -5 -25 -30 15 -42 67 -100 34 -100 -57 0 -82 56 -116 95 -58 28 42
47 47 33 9 -13 -37 -44 -59 -84 -59 -76 0 -109 134 -48 201 25 28 79 25 109
-6z m135 -85 c0 -98 -2 -110 -17 -110 -16 0 -18 12 -18 110 0 98 2 110 18 110
15 0 17 -12 17 -110z m325 0 c0 -101 -1 -105 -22 -108 -20 -3 -21 0 -14 25 12
42 13 137 1 167 -9 25 -8 27 12 24 22 -3 23 -7 23 -108z m1760 0 c0 -101 -1
-105 -22 -108 -21 -3 -22 -1 -11 28 6 19 8 64 5 112 -5 70 -3 79 11 76 15 -3
17 -18 17 -108z m80 13 c0 -107 7 -119 50 -78 34 31 34 31 28 3 -10 -38 -24
-48 -69 -48 l-44 0 0 110 c0 98 2 110 18 110 15 0 17 -11 17 -97z m-2235 -90
c0 -25 -16 -39 -23 -20 -3 7 -3 26 0 41 4 20 8 24 14 14 5 -7 9 -23 9 -35z
m448 -50 c18 -4 20 -8 10 -14 -16 -10 -60 -12 -84 -2 -16 6 -16 7 2 14 24 10
43 10 72 2z"/>
<path d="M1854 271 c-45 -27 -71 -98 -56 -149 23 -76 90 -107 177 -81 43 13
45 15 45 51 0 27 4 38 15 38 8 0 15 4 15 9 0 6 -15 7 -34 4 -19 -3 -42 -1 -52
5 -16 9 -16 10 4 16 28 9 28 18 -4 55 -30 37 -57 39 -78 9 -32 -46 -11 -158
29 -158 21 0 35 32 24 53 -8 14 -7 15 13 8 26 -9 35 -45 18 -67 -20 -23 -83
-18 -108 9 -18 19 -22 35 -22 84 0 77 24 113 76 113 37 0 84 -36 84 -65 0 -8
5 -15 10 -15 6 0 10 20 10 45 0 25 -4 45 -10 45 -5 0 -10 -5 -10 -10 0 -6 -13
-4 -30 5 -39 20 -78 19 -116 -4z"/>
<path d="M2193 283 c-56 -11 -101 -91 -86 -151 20 -83 117 -128 193 -89 36 18
70 74 70 116 0 40 -29 94 -58 110 -24 13 -89 21 -119 14z m108 -39 c19 -21 24
-36 24 -84 0 -77 -27 -110 -91 -110 -60 0 -84 32 -84 112 0 49 4 63 25 83 34
35 93 34 126 -1z"/>
<path d="M2200 230 c-14 -14 -20 -33 -20 -68 0 -56 21 -92 54 -92 37 0 56 31
57 90 1 44 -2 57 -21 72 -29 23 -45 23 -70 -2z"/>
<path d="M1470 270 c-20 -20 -25 -45 -14 -75 4 -9 33 -29 65 -46 46 -23 59
-34 59 -52 0 -30 -18 -47 -50 -47 -30 0 -60 27 -60 53 0 9 -6 17 -13 17 -8 0
-13 -13 -12 -39 0 -31 4 -39 20 -40 11 0 38 -3 60 -6 50 -8 85 20 85 66 0 32
-38 79 -63 79 -23 0 -67 40 -67 61 0 41 73 36 92 -6 15 -34 25 -24 20 21 -3
24 -7 32 -13 23 -6 -11 -11 -11 -21 -1 -18 18 -66 14 -88 -8z"/>
<path d="M2684 279 c-2 -4 5 -9 16 -12 18 -5 20 -14 20 -107 0 -93 -2 -102
-20 -107 -44 -12 -15 -19 69 -18 128 2 161 29 161 130 0 52 -33 98 -83 114
-34 12 -155 11 -163 0z m159 -20 c33 -15 47 -49 47 -110 0 -66 -30 -99 -90
-99 l-40 0 0 110 0 110 30 0 c16 0 40 -5 53 -11z"/>
<path d="M2795 227 c-10 -38 -1 -150 12 -154 6 -2 22 6 34 18 18 18 21 30 17
70 -5 45 -29 89 -49 89 -5 0 -11 -10 -14 -23z"/>
<path d="M1490 111 c0 -12 29 -41 41 -41 13 0 11 24 -3 38 -14 14 -38 16 -38
3z"/>
<path d="M2645 19 c-4 -6 -28 -9 -59 -6 -28 2 -60 0 -71 -4 -11 -4 32 -8 100
-8 114 0 118 1 86 14 -40 18 -48 18 -56 4z"/>
</g>
</svg>
