<?xml version="1.0" standalone="no"?>
<!DOCTYPE svg PUBLIC "-//W3C//DTD SVG 20010904//EN"
 "http://www.w3.org/TR/2001/REC-SVG-20010904/DTD/svg10.dtd">
<svg version="1.0" xmlns="http://www.w3.org/2000/svg"
 width="120.000000pt" height="114.000000pt" viewBox="0 0 554.000000 114.000000"
 preserveAspectRatio="xMidYMid meet">

<g transform="translate(0.000000,114.000000) scale(0.100000,-0.100000)"
fill="#ffff" stroke="none">
<path d="M0 570 l0 -570 2770 0 2770 0 0 570 0 570 -2770 0 -2770 0 0 -570z
m4143 513 c4 -3 3 -11 -2 -17 -12 -14 15 -296 29 -310 11 -11 16 1 55 134 29
96 50 140 40 85 -5 -30 -25 -204 -25 -217 0 -5 6 -8 13 -8 7 0 35 46 62 103
59 121 54 112 61 104 4 -4 2 -12 -3 -19 -5 -7 -15 -33 -22 -58 -7 -25 -26 -89
-43 -143 l-30 -98 -146 3 -146 3 -48 130 c-26 72 -47 134 -45 138 1 4 24 -33
51 -83 27 -49 54 -90 59 -90 9 0 8 33 -8 200 -7 70 4 50 45 -88 20 -65 36
-102 43 -99 15 5 39 223 33 290 -4 34 -2 47 8 47 7 0 16 -3 19 -7z m-150 -39
c9 -9 -4 -35 -14 -28 -5 3 -9 12 -9 20 0 14 12 19 23 8z m289 -9 c0 -5 -5 -11
-11 -13 -6 -2 -11 4 -11 13 0 9 5 15 11 13 6 -2 11 -8 11 -13z m-402 -85 c0
-5 -2 -10 -4 -10 -3 0 -8 5 -11 10 -3 6 -1 10 4 10 6 0 11 -4 11 -10z m398
-355 l1 -35 -144 0 -145 0 0 35 0 35 143 0 144 0 1 -35z m-3861 -90 c21 -9 45
-23 55 -32 16 -14 18 -14 27 11 6 14 13 26 16 26 3 0 5 -37 4 -82 -1 -82 -1
-83 -15 -48 -26 64 -42 85 -81 107 -77 45 -163 21 -205 -59 -32 -60 -33 -204
-2 -262 31 -61 65 -81 134 -81 74 0 105 21 142 95 l27 55 0 -80 c0 -77 0 -79
-15 -52 l-15 28 -30 -25 c-39 -33 -101 -49 -158 -41 -58 9 -88 25 -127 67 -96
102 -62 307 59 367 51 25 132 28 184 6z m417 6 c-5 -5 -18 -11 -29 -13 -18 -3
-20 -12 -23 -96 l-3 -93 113 3 113 3 0 90 0 90 -27 3 c-16 2 -28 8 -28 13 0 5
43 9 95 9 57 0 95 -4 95 -10 0 -5 -11 -10 -25 -10 -14 0 -29 -8 -35 -19 -11
-21 -14 -338 -4 -366 4 -10 21 -23 38 -31 29 -12 23 -13 -74 -13 -94 0 -101 1
-70 12 l35 12 0 100 0 100 -110 0 -110 0 -3 -98 -3 -98 33 -14 c31 -14 28 -14
-67 -14 -95 1 -99 1 -67 15 l32 14 -2 198 -3 197 -27 3 c-16 2 -28 8 -28 13 0
5 44 9 97 9 58 0 93 -4 87 -9z m596 -1 c0 -5 -11 -10 -24 -10 -13 0 -27 -7
-30 -16 -9 -22 -7 -367 2 -380 4 -6 21 -16 37 -22 25 -9 12 -10 -75 -11 -97 0
-103 1 -74 13 17 8 34 21 38 31 10 28 7 345 -4 366 -6 11 -21 19 -35 19 -14 0
-25 5 -25 10 0 6 38 10 95 10 57 0 95 -4 95 -10z m417 -5 c21 -9 45 -23 55
-32 16 -14 18 -14 27 11 6 14 13 26 16 26 3 0 5 -37 4 -82 0 -66 -2 -78 -10
-58 -29 71 -47 96 -84 117 -79 45 -165 20 -207 -61 -30 -56 -32 -202 -4 -259
28 -57 70 -82 138 -82 72 0 103 22 140 95 l27 55 0 -80 c0 -77 0 -79 -15 -52
l-15 28 -30 -25 c-30 -25 -86 -46 -125 -46 -81 0 -167 57 -198 132 -46 109 3
260 97 307 51 25 132 28 184 6z m423 6 c0 -5 -12 -11 -27 -13 l-28 -3 -3 -97
c-1 -54 0 -98 4 -98 4 0 44 34 90 76 86 77 103 111 64 121 -45 12 -15 23 60
23 79 0 106 -12 53 -23 -29 -6 -193 -142 -193 -160 0 -18 226 -235 261 -251
32 -14 28 -14 -86 -14 -91 0 -112 2 -87 9 20 6 32 16 32 27 0 10 -38 55 -84
101 -107 107 -116 105 -116 -19 l0 -91 33 -14 c30 -13 26 -14 -73 -14 -94 0
-101 1 -70 12 l35 12 0 200 c0 192 -1 200 -20 203 -11 2 -24 8 -29 13 -6 5 29
9 87 9 53 0 97 -4 97 -9z m603 -11 c32 -25 36 -25 47 3 6 16 9 6 9 -43 l0 -65
-19 37 c-26 48 -65 78 -104 78 -64 0 -103 -58 -71 -106 8 -13 55 -44 104 -69
113 -56 134 -82 129 -153 -3 -37 -11 -59 -28 -77 -45 -48 -142 -55 -194 -14
-30 23 -35 24 -52 2 -12 -16 -13 -8 -14 55 0 73 12 89 24 31 3 -17 21 -46 40
-65 29 -29 41 -34 79 -34 54 0 94 29 103 75 8 46 -25 80 -121 125 -96 44 -120
72 -120 138 0 37 5 48 33 73 41 37 114 41 155 9z m780 -13 l36 -28 7 26 c11
43 24 16 24 -50 0 -69 -14 -94 -25 -45 -21 98 -146 152 -225 98 -64 -44 -74
-68 -78 -181 -3 -92 -1 -106 20 -146 32 -59 77 -83 145 -78 62 4 90 25 99 73
10 54 -2 82 -39 93 -25 7 -11 9 68 9 83 1 96 -1 75 -11 -36 -16 -40 -25 -40
-88 0 -54 -1 -57 -27 -62 -16 -3 -56 -14 -91 -23 -53 -14 -71 -15 -116 -5
-168 38 -228 242 -110 380 51 59 83 72 170 69 60 -3 77 -8 107 -31z m568 22
c50 -15 105 -62 129 -110 24 -46 27 -153 6 -202 -17 -42 -65 -89 -113 -113
-56 -27 -174 -25 -229 3 -53 28 -100 82 -113 130 -36 128 19 249 131 290 43
15 140 16 189 2z m479 1 c0 -5 -13 -10 -30 -10 -19 0 -33 -7 -40 -21 -13 -24
-10 -373 3 -386 5 -4 41 -8 81 -8 84 0 100 9 128 73 10 23 21 42 23 42 3 0 5
-29 5 -65 l0 -65 -192 1 c-150 0 -186 3 -163 11 17 6 33 16 37 22 9 13 11 358
2 380 -3 9 -17 16 -30 16 -13 0 -24 5 -24 10 0 6 40 10 100 10 60 0 100 -4
100 -10z m554 -1 c61 -17 103 -50 132 -102 23 -43 26 -57 22 -132 -3 -75 -6
-87 -34 -122 -54 -68 -87 -78 -269 -80 -105 -2 -150 1 -132 7 57 18 57 18 57
207 0 101 -4 182 -10 194 -6 11 -22 20 -38 20 -24 1 -23 2 8 9 55 12 221 11
264 -1z"/>
<path d="M4049 488 c-20 -11 -47 -39 -60 -62 -20 -35 -24 -55 -24 -131 0 -147
44 -206 158 -213 52 -3 67 0 96 20 60 40 76 80 76 188 0 83 -3 101 -25 139
-44 78 -143 105 -221 59z"/>
<path d="M5097 503 c-10 -9 -8 -385 1 -400 13 -20 58 -25 116 -13 93 19 132
82 129 208 -2 105 -50 179 -131 202 -42 11 -105 13 -115 3z"/>
</g>
</svg>
