<?xml version="1.0" standalone="no"?>
<!DOCTYPE svg PUBLIC "-//W3C//DTD SVG 20010904//EN"
 "http://www.w3.org/TR/2001/REC-SVG-20010904/DTD/svg10.dtd">
<svg version="1.0" xmlns="http://www.w3.org/2000/svg"
 width="25" height="25" viewBox="0 0 50.000000 50.000000"
 preserveAspectRatio="xMidYMid meet">
<metadata>
Created by potrace 1.16, written by Peter Selinger 2001-2019
</metadata>
<g transform="translate(0.000000,50.000000) scale(0.100000,-0.100000)"
fill="#39e29d" stroke="none">
<path d="M201 476 c-8 -9 -27 -16 -43 -16 -25 0 -29 -3 -23 -17 4 -10 8 -22 9
-28 12 -72 65 -104 134 -82 27 9 38 18 40 37 2 13 10 33 18 44 16 24 18 40 4
31 -5 -3 -7 0 -4 8 4 10 -4 16 -28 20 -18 3 -47 9 -64 12 -21 5 -34 2 -43 -9z"/>
<path d="M332 362 c5 -16 -3 -23 -43 -35 -46 -15 -68 -14 -121 8 -19 8 -91
-53 -114 -96 -19 -38 -18 -129 2 -158 28 -39 73 -51 194 -51 167 0 210 26 210
128 0 60 -9 83 -53 129 -26 28 -27 31 -8 26 23 -6 28 6 9 25 -9 9 -8 12 6 12
10 0 16 6 14 13 -3 7 -25 13 -53 15 -43 3 -47 1 -43 -16z"/>
</g>
</svg>
